<?xml version="1.0"?>
<svg xmlns="http://www.w3.org/2000/svg" height="512px" viewBox="-32 0 384 384" width="512px"><g><path d="m235.3125 4.6875c-3-3-7.074219-4.6875-11.3125-4.6875h-208c-8.832031 0-16 7.167969-16 16v352c0 8.832031 7.167969 16 16 16h288c8.832031 0 16-7.167969 16-16v-272c0-4.238281-1.6875-8.3125-4.6875-11.3125zm52.6875 347.3125h-256v-256h64c8.832031 0 16-7.167969 16-16s-7.167969-16-16-16h-64v-32h185.375l70.625 70.625zm0 0" data-original="#000000" class="active-path" data-old_color="#000000" fill="#5F6368"/><path d="m167.894531 130.160156c-.300781-.175781-.597656-.328125-.910156-.480468-1.199219-.582032-2.441406-1.054688-3.71875-1.328126-.066406-.015624-.121094-.039062-.1875-.054687-1.34375-.265625-2.703125-.289063-4.0625-.207031-.351563.023437-.6875.054687-1.039063.101562-1.382812.175782-2.753906.480469-4.066406 1.015625-.007812.007813-.023437 0-.03125.007813-.039062.015625-.070312.050781-.109375.074218-1.226562.519532-2.371093 1.238282-3.457031 2.078126-.296875.234374-.585938.457031-.863281.703124-.25.21875-.519531.386719-.761719.617188l-48 48c-6.246094 6.25-6.246094 16.375 0 22.625 3.128906 3.128906 7.214844 4.6875 11.3125 4.6875s8.183594-1.558594 11.3125-4.6875l20.6875-20.6875v121.375c0 8.832031 7.167969 16 16 16s16-7.167969 16-16v-121.375l20.6875 20.6875c6.25 6.246094 16.375 6.246094 22.625 0 6.246094-6.25 6.246094-16.375 0-22.625l-48-48c-1.03125-1.03125-2.199219-1.832031-3.417969-2.527344zm0 0" data-original="#000000" class="active-path" data-old_color="#000000" fill="#202124"/></g> </svg>
